<?xml version="1.0" encoding="UTF-8"?>
<svg version="1.1" xmlns="http://www.w3.org/2000/svg" width="108" height="108">
<path d="M0 0 C1.10021484 -0.04350586 1.10021484 -0.04350586 2.22265625 -0.08789062 C7.64809826 -0.15212628 7.64809826 -0.15212628 9.64257812 1.79101562 C11.75980618 5.39225596 13.15169639 9.17215503 14.6015625 13.08203125 C14.92866211 13.94748566 15.25576172 14.81294006 15.59277344 15.70462036 C16.65139856 18.50911816 17.70102727 21.31687915 18.75 24.125 C20.18509293 27.94621999 21.62355443 31.76616687 23.0625 35.5859375 C23.41390045 36.52064377 23.7653009 37.45535004 24.12734985 38.41838074 C26.10801391 43.67226073 28.13802564 48.89906566 30.25 54.1015625 C30.68231934 55.16914795 31.11463867 56.2367334 31.56005859 57.33666992 C32.3331476 59.22942148 33.11676164 61.11792038 33.91259766 63.0012207 C34.24308105 63.81421631 34.57356445 64.62721191 34.9140625 65.46484375 C35.34259521 66.4856604 35.34259521 66.4856604 35.77978516 67.52709961 C36.125 69.3125 36.125 69.3125 34.125 72.3125 C31.37767014 72.67123731 28.93490266 72.82216544 26.1875 72.8125 C25.45853516 72.84085937 24.72957031 72.86921875 23.97851562 72.8984375 C21.84765625 72.90625 21.84765625 72.90625 18.125 72.3125 C14.89606459 68.71435161 14.4997079 65.12397766 13.125 60.3125 C-0.24 60.8075 -0.24 60.8075 -13.875 61.3125 C-15.525 64.6125 -17.175 67.9125 -18.875 71.3125 C-19.875 72.3125 -19.875 72.3125 -23.69140625 72.41015625 C-25.27346682 72.40348089 -26.85551159 72.39151875 -28.4375 72.375 C-29.24380859 72.37048828 -30.05011719 72.36597656 -30.88085938 72.36132812 C-32.87893756 72.34950518 -34.87697783 72.33156914 -36.875 72.3125 C-38.16299757 68.44850728 -37.31458765 67.23075503 -35.8125 63.4921875 C-35.34851807 62.32413574 -34.88453613 61.15608398 -34.40649414 59.95263672 C-33.89653846 58.69737067 -33.38603027 57.44232896 -32.875 56.1875 C-32.36326927 54.91576123 -31.85212153 53.64378773 -31.34155273 52.37158203 C-30.32745339 49.84858856 -29.30774252 47.32795958 -28.28466797 44.80859375 C-27.07088214 41.798304 -25.88706751 38.77962035 -24.72265625 35.75 C-24.12787244 34.22906173 -23.53284516 32.70821863 -22.9375 31.1875 C-22.68033203 30.50284668 -22.42316406 29.81819336 -22.15820312 29.11279297 C-21.02264045 26.27314506 -20.28655153 24.58099886 -17.68359375 22.8828125 C-17.08675781 22.69460937 -16.48992188 22.50640625 -15.875 22.3125 C-12.26572645 27.12486473 -10.18684741 32.19934095 -8.0234375 37.80078125 C-7.13173812 40.44557596 -7.13173812 40.44557596 -4.875 41.3125 C-3.50157169 41.3814472 -2.12497898 41.39717708 -0.75 41.375 C1.168125 41.3440625 1.168125 41.3440625 3.125 41.3125 C4.45054878 39.24246736 4.45054878 39.24246736 3.26049805 36.59448242 C2.80715088 35.46373291 2.35380371 34.3329834 1.88671875 33.16796875 C1.64589066 32.56116776 1.40506256 31.95436676 1.15693665 31.32917786 C0.38265371 29.38315581 -0.40225243 27.44162011 -1.1875 25.5 C-1.70578298 24.20275534 -2.22336957 22.90523223 -2.74023438 21.60742188 C-5.34246286 15.07438145 -5.34246286 15.07438145 -8.02807617 8.57543945 C-8.99177407 6.00048534 -9.10235612 4.04077349 -8.875 1.3125 C-6.82524022 -0.73725978 -2.80397437 0.03657358 0 0 Z " fill="#5350F4" transform="translate(42.875,17.6875)"/>
<path d="M0 0 C2.60527105 -0.10792837 5.20608311 -0.18724878 7.8125 -0.25 C8.55048828 -0.28351562 9.28847656 -0.31703125 10.04882812 -0.3515625 C15.50121581 -0.45024825 15.50121581 -0.45024825 17.88671875 1.703125 C19.04917957 4.10146522 20.09464875 6.49287345 21 9 C22.82337891 9.09087891 22.82337891 9.09087891 24.68359375 9.18359375 C26.26824228 9.26798332 27.85287702 9.3526321 29.4375 9.4375 C30.23994141 9.47681641 31.04238281 9.51613281 31.86914062 9.55664062 C37.88671875 9.88671875 37.88671875 9.88671875 39 11 C39.07325168 13.86267567 39.09238205 16.700719 39.0625 19.5625 C39.05798828 20.36880859 39.05347656 21.17511719 39.04882812 22.00585938 C39.03700518 24.00393756 39.01906914 26.00197783 39 28 C35.37 28 31.74 28 28 28 C28.34256836 28.82089111 28.68513672 29.64178223 29.03808594 30.48754883 C30.32978084 33.58617749 31.6192184 36.68572667 32.90722656 39.78588867 C33.46103744 41.11763377 34.01569937 42.44902533 34.57128906 43.7800293 C37.26172743 50.22688297 39.93464088 56.68302039 42.453125 63.19921875 C42.77958008 64.03670654 43.10603516 64.87419434 43.44238281 65.73706055 C44 68 44 68 43 72 C37.39 72 31.78 72 26 72 C21.00507692 62.66083347 17.36757752 52.8857351 13.625 43 C12.6656898 40.48059457 11.70492569 37.96174893 10.74359131 35.44311523 C10.10931119 33.77814514 9.47733672 32.11229479 8.84771729 30.44555664 C7.2582315 26.24640114 5.6314817 22.06870318 3.92871094 17.9140625 C3.43315201 16.69021851 3.43315201 16.69021851 2.92758179 15.44165039 C2.30014464 13.89737257 1.66254444 12.35717064 1.01309204 10.82202148 C-0.59689303 6.83418824 -1.42278783 4.1456569 0 0 Z " fill="#5451F4" transform="translate(59,18)"/>
</svg>
